<svg width="718" height="801" viewBox="0 0 718 801" fill="none" xmlns="http://www.w3.org/2000/svg">
<path d="M10 752V738L12 725L18 701L28.5 675.5L35 659L39.5 645L41.5 621L45 557V538.5L49.5 496L59 447L70.5 398.5L81 367.5L90.5 344.5L114.5 301L133.5 274.5L149.5 258L166.5 242L199 217.5L264 176L203.5 151L190 145L178.5 139L169 131.5L163 126.5L158 120.5L154 112.5L152 105L149.5 96.5V89L152 80.5L155.5 73L160.5 67L164.5 62.5L172.5 58L181 55.5H188L199 60L214 64.5H225L240 58L247.5 51.5L258 39.5L266 30.5L270.5 23L274.5 18L279.5 15L286.5 12.5H292H300.5L309 15L316.5 20.5L337.5 35.5L342 39.5H346.5H353.5L363 35.5L372.5 30.5L385 22L392.5 15L397 12.5L405 10.5H411.5L421 12.5L429 16.5L434 20.5L456 42L458 43.5H461.5H465L471 41L483.5 37L495 32L508 30.5L518 32L527 35L535.5 41L543.5 49.5L549.5 60L551 73L549.5 84.5L545.5 99L530 114.5L500.5 138L453 167L493.5 195.5L534 227L549.5 241L572 262L593.5 285.5L604 298L623 329L639.5 362.5L653.5 402.5L666.5 453.5L671 480L674.5 506L676.5 529L678 551.5L679 571L680 589L679 605L680 621L681.5 631L684.5 645L688.5 657L694 671.5L699.5 686.5L704 697.5L706.5 706.5L707.5 716V727V735.5L704 750.5L699.5 762L696.5 767.5L692 772.5L686 779L677.5 784.5L667.5 788.5L659.5 790.5H651.5H628H615L594 788.5L575.5 786L562 784.5L551.5 783H542.5L525.5 784.5L500.5 786H477.5L457.5 787.5L434.5 788.5L407.5 790H381L340 791H320.5H302.5H283H263.5L244.5 790L226.5 788.5L208.5 787L198.5 786H187.5H178.5H170H162.5L140 788.5L120 790L96 791H79H64.5L54 790L45 788.5L37 787L28.5 784L22.5 780.5L18 776.5L14.5 771L12 765C11.2 761.8 10.3333 755 10 752Z" stroke="black" stroke-width="20"/>
<path d="M483.5 432L449.256 394.415C444.909 389.644 442.5 383.423 442.5 376.968V376.968C442.5 374.011 441.994 371.076 441.003 368.29L438.5 361.25C435.853 353.805 434.5 345.962 434.5 338.06V329V315.65C434.5 310.231 435.051 304.825 436.143 299.518L436.584 297.379C437.525 292.805 438 288.147 438 283.476V283.476C438 274.901 436.4 266.4 433.283 258.412L432.924 257.492C430.98 252.512 428.504 247.757 425.539 243.309L424 241L417.402 229.073C413.163 221.41 407.694 214.494 401.213 208.603L400 207.5L381 192L368.33 184.023C367.781 183.677 367.293 183.241 366.887 182.734V182.734C364.311 179.513 359.294 179.921 357.272 183.516L352.5 192L343.647 204.132C340.556 208.367 337.89 212.896 335.685 217.653L329.5 231L325.336 239.792C322.128 246.564 319.887 253.753 318.68 261.148L316.5 274.5L313.129 294.351C312.378 298.776 312 303.256 312 307.744V317L312.328 333.084C312.442 338.674 313.228 344.231 314.669 349.634V349.634C315.887 354.199 317.565 358.63 319.678 362.856L323.5 370.5L330.5 390L332.435 394.211C336.77 403.647 339.227 413.836 339.669 424.21L340 432L339 466M261.5 178.5L269.969 179.912C274.316 180.636 278.715 181 283.121 181H301L330.5 178.5L343 176L358.5 173L359.684 172.605C367.841 169.886 376.384 168.5 384.982 168.5H388H411H426.5L442.7 167.06C446.856 166.691 451.042 167.181 455 168.5V168.5" stroke="black" stroke-width="20" stroke-linecap="round" stroke-linejoin="round"/>
<path d="M351.5 175L292.5 202.5L266.5 219.5L244.5 236.5L232 252L220.5 266.5L211 283L205 302L204.032 317.5L211 330L223 344L239 351.5H250.5L264.5 344L276.5 324.5L287.5 306L296 291L305.5 261.5L313.5 246L322.5 231L338 208L353.5 175M369 175L380 186.5L388 194.5L414 221.5L430 266.5L441 291L453.5 317.5L463 330L478 339H490.5L499.5 333.5L505 327L511.5 314V302V294V277.5L508.5 266.5L502.5 259L496.5 252L490.5 244L478 236.5L470.5 228L453.5 216L425 198.5L397 186.5L369 175Z" stroke="black" stroke-width="20"/>
</svg>
