<?xml version="1.0" encoding="UTF-8"?>
<svg width="295.635130616568" height="261.35625" viewBox="0 0 350 309.41751512827" class="looka-1j8o68f"><defs id="SvgjsDefs1378"></defs><g id="SvgjsG1379" featurekey="symbolContainer" transform="matrix(4.619999999999999,0,0,4.619999999999999,60,20)" fill="#8dc6ff"><circle cx="25" cy="25" r="25"></circle></g><g id="SvgjsG1380" featurekey="monogramFeature-0" transform="matrix(3.66876275064438,0,0,3.66876275064438,105.99371174806686,-2.031441259665698)" fill="#ffffff"><path d="M17.04 15.18 l3.36 -0.18 l2.64 0 l1.44 0.06 l2.28 0.24 c6.12 0.6 7.44 6.24 7.44 11.4 c0 0.66 0.06 2.28 -0.96 2.28 l-6.06 0 c-0.9 0 -1.02 -1.08 -1.02 -1.8 l-0.06 -2.28 c-0.06 -1.32 -1.92 -1.38 -2.82 -1.38 l-3 0 c-0.72 0 -1.44 0.12 -2.16 0.3 c-1.56 0.24 -1.8 0.72 -1.86 2.22 l1.8 -1.38 c0.24 -0.12 0.78 -0.12 1.02 -0.12 l-2.88 2.16 l0 0.96 l4.14 -3.12 l0.96 0 l-4.44 3.36 l-0.66 0 c0 2.1 0.84 2.4 2.76 2.58 l1.92 0.18 l0.18 0 l0 -0.06 l4.08 -3.06 c0.06 0.18 0 0.42 0 0.48 l0 0.24 l-3.18 2.4 l-0.06 0.06 l1.08 0.12 l2.28 -1.74 c0.06 0.06 0.12 0.24 0.12 0.3 s0.12 0.18 0.12 0.24 l-1.62 1.26 l0.12 0 s0.66 0.06 1.02 0.06 l1.32 -0.96 l0.96 0 l-1.44 1.08 l0.96 0.12 l0.12 0 l1.62 -1.2 l0.6 0 l0 0.24 l-1.5 1.14 l0.9 0.18 c0.24 0 0.36 -0.3 0.6 -0.36 l0 0.54 l0.06 0 c5.34 1.74 5.58 6.3 5.58 11.1 c0 12.48 -5.1 12.78 -15.72 12.78 l-3.18 -0.24 c-5.1 -0.36 -7.68 -4.86 -7.8 -9.6 l-0.06 -2.82 l0 -0.3 c0 -0.84 0.06 -1.62 0.9 -1.92 l0.78 0 l2.4 -1.74 c0.18 0 0.42 0.12 0.6 0.24 l-2.04 1.5 l1.26 0 l1.68 -1.2 l0.72 0.18 l-1.44 1.02 l1.26 0 l1.2 -0.9 l0.78 0.12 l-1.02 0.78 c0.3 0.06 0.48 0.18 0.72 0.42 l1.38 -1.02 l0 -0.06 l0.84 0.12 l-1.98 1.5 c-0.06 0.12 -0.06 0.18 -0.06 0.18 c0 0.12 0.06 0.6 0.06 0.72 l3.12 -2.28 l0.06 -0.06 c0.24 0 0.54 0.06 0.78 0.06 l-3.96 3 l0 0.36 c0 2.22 0 3.06 2.58 3.3 c0.96 0.12 1.86 0.12 2.82 0.12 l0.3 0 l0 -0.54 l4.02 -3 c0.06 0.12 0.06 0.3 0.06 0.48 l0 0.18 l-3.84 2.88 l0.42 0 l0.42 0 l0.42 0 l2.52 -1.86 l0 0.12 c0 0.12 0 0.48 -0.06 0.54 l-1.32 1.08 c0.36 0 0.66 -0.18 0.96 -0.24 c1.5 -0.54 1.38 -2.1 1.44 -3.42 c0 -0.72 -0.06 -1.38 -0.12 -2.1 c-0.24 -1.44 -1.44 -1.74 -2.7 -1.8 l-3.12 -0.12 l-3.24 -0.24 l-2.46 -0.42 c-4.56 -0.66 -6.72 -5.1 -6.9 -9.3 l-0.06 -2.34 c0 -6.18 1.8 -11.4 8.82 -11.82 z M8.4 21.060000000000002 l-3.78 2.82 c0 -0.18 0.66 -1.08 0.9 -1.38 l2.76 -2.1 c0.06 -0.06 0.54 -0.24 0.6 -0.24 z M3.96 25.32 l3.96 -2.94 l0 0.06 s-0.18 0.54 -0.24 0.84 l-3.96 2.94 l0 -0.18 c0.06 -0.12 0.18 -0.6 0.24 -0.72 z M3.48 27.299999999999997 l4.02 -3 l-0.12 0.84 l-4.02 3 l0.12 -0.78 l0 -0.06 z M18.12 27.840000000000003 l4.38 -3.24 l0 -0.06 c0.36 0 0.54 0 0.9 0.12 l-4.38 3.24 l-0.24 0 s-0.54 0 -0.66 -0.06 z M20.04 28.08 l4.26 -3.18 c0.18 0 0.42 0.18 0.54 0.3 l-4.14 3.12 c-0.3 -0.12 -0.48 -0.18 -0.66 -0.24 z M21 28.98 l4.14 -3.06 l0 0.6 l0 0.12 l-4.08 3 c0 -0.18 -0.06 -0.42 -0.06 -0.66 z M3.24 29.76 l0 -0.6 l4.02 -3.06 l0 0.18 c0 0.18 0.12 0.48 -0.06 0.6 l-3.96 3 l0 -0.12 z M3.18 30.84 l4.02 -3 l0.06 0 l0 0.66 l-4.02 3 l-0.06 0.06 l0 -0.72 z M3.24 32.46 l4.02 -3 c0.06 0.18 0.06 0.36 0.06 0.54 l0 0.12 l-4.02 3 c-0.06 -0.06 -0.12 -0.48 -0.12 -0.6 c0 -0.06 0 -0.06 0.06 -0.06 z M3.36 34.019999999999996 l4.02 -3 c0.06 0.24 0.12 0.66 0.12 0.66 l-4.14 3.06 c0 -0.12 -0.06 -0.54 -0.06 -0.66 z M3.54 35.519999999999996 l4.08 -3 l0.06 0.48 l0.06 0.06 s-0.06 0 -0.06 0.06 l-4.08 3 c0 -0.12 -0.06 -0.42 -0.06 -0.6 z M3.78 36.9 l0.06 0 l4.08 -3.06 l0.18 0.6 l-4.14 3.06 c0 -0.06 -0.06 -0.18 -0.06 -0.24 c-0.06 -0.06 -0.12 -0.36 -0.12 -0.36 z M4.26 38.22 l4.08 -3.06 l0.06 0 l0.24 0.48 l-4.14 3.12 c-0.06 -0.12 -0.18 -0.3 -0.24 -0.54 z M4.86 39.42 l4.14 -3.06 l0.06 -0.06 l0 0.06 l0.3 0.42 l-4.2 3.12 s-0.18 -0.3 -0.3 -0.48 z M5.64 40.5 l4.2 -3.12 l0.42 0.42 l-4.26 3.12 s-0.18 -0.24 -0.36 -0.42 z M6.66 41.4 l4.2 -3.12 l0.54 0.3 l-4.2 3.18 c-0.18 -0.06 -0.48 -0.24 -0.54 -0.36 z M16.92 43.68 l4.32 -3.3 l0.06 0 l0.12 0 l0.36 0 l0.42 0 l-4.38 3.3 c-0.06 0.06 0 0 -0.06 0 l-0.84 0 z M19.74 43.86 l-0.78 -0.12 l4.38 -3.24 c0.18 0 0.54 0.06 0.72 0.12 z M20.64 44.1 l4.26 -3.18 c0.24 0 0.48 0.36 0.48 0.36 l-4.14 3.12 c-0.18 -0.12 -0.54 -0.24 -0.6 -0.3 z M21.54 45.06 l4.08 -3.06 l0.06 0 c0.12 0.12 0.06 0.42 0.06 0.6 l0 0.06 l-4.08 3.06 c0 -0.24 -0.06 -0.42 -0.12 -0.66 z M3.18 45.66 l0.78 -0.6 l0.96 0 l-1.92 1.44 c0 -0.18 0.06 -0.78 0.18 -0.84 z M3 47.46 l3.18 -2.4 l0.9 0 l0 0.06 l-4.08 3.06 l0 -0.72 z M3 49.08 l4.08 -3.06 c0 0.12 0.06 0.48 0.06 0.72 l-4.08 3.06 c-0.06 -0.24 -0.06 -0.42 -0.06 -0.72 z M3.12 50.64 l4.08 -3 s0.06 0.42 0.06 0.66 l-4.08 3 s-0.06 -0.36 -0.06 -0.66 z M3.3 52.14 l4.08 -3.06 c0.06 0.24 0.18 0.6 0.18 0.66 l-4.14 3.06 l-0.12 -0.6 l0 -0.06 z M3.78 54.18 l-0.18 -0.6 l4.08 -3.06 l0.06 0 l0.18 0.54 z M4.32 55.38 l-0.24 -0.48 l4.14 -3.12 c0.06 0 0.06 0 0.06 0.06 l0.24 0.42 z M4.74 55.980000000000004 l4.14 -3.06 l0 0 l0.3 0.42 l0 0.06 l-4.14 3.12 l-0.3 -0.48 l0 -0.06 z M5.46 57.12 l4.2 -3.12 l0.06 -0.06 l0.42 0.42 l-4.26 3.18 l-0.24 -0.24 c0 -0.06 -0.12 -0.18 -0.18 -0.18 z M6.48 58.02 l4.2 -3.12 l0.06 -0.06 l0.48 0.36 l-4.26 3.18 s-0.18 -0.18 -0.3 -0.24 c0 0 -0.18 -0.06 -0.18 -0.12 z M7.74 58.74 l4.2 -3.18 l0.06 0 l0.6 0.24 l-4.26 3.18 l-0.06 0.06 c-0.12 0 -0.48 -0.18 -0.54 -0.3 z M21.96 59.7 l-0.06 0 l4.5 -3.36 c0.06 -0.06 0.66 -0.18 0.78 -0.18 c0.06 -0.06 0.54 -0.18 0.66 -0.18 l-4.68 3.48 c-0.06 0.06 -1.08 0.24 -1.2 0.24 z M9.18 59.34 l4.32 -3.24 l0.72 0.18 l-4.38 3.24 c-0.18 0 -0.48 -0.06 -0.66 -0.18 z M10.92 59.7 l-0.06 0 l4.32 -3.24 c0.06 -0.06 0.06 0 0.12 0 c0.24 0 0.54 0 0.78 0.06 l-4.38 3.24 c-0.3 0 -0.72 -0.06 -0.78 -0.06 z M19.38 59.94 l4.44 -3.3 c0.12 -0.12 0.9 -0.12 1.08 -0.12 l-4.44 3.3 c0 0.06 -0.6 0.06 -1.08 0.12 z M12.9 59.88 l-0.06 0 l4.38 -3.3 l0.12 0 c0.24 0 0.54 0 0.78 0.06 l-4.38 3.3 l-0.12 0 c-0.12 0 -0.66 -0.06 -0.72 -0.06 z M17.1 60 l4.38 -3.3 l0.06 0 c0 -0.06 0.54 -0.06 0.96 -0.06 l-4.44 3.36 l-0.96 0 z M14.94 59.94 l4.38 -3.24 l0.96 0 l-4.44 3.3 l-0.24 0 c-0.24 0 -0.42 0 -0.66 -0.06 z"></path></g><g id="SvgjsG1381" featurekey="nameFeature-0" transform="matrix(1.3720541117239278,0,0,1.3720541117239278,-2.1952867750321996,254.53535065931288)" fill="#22313f"></g></svg>